<svg xmlns="http://www.w3.org/2000/svg" xmlns:xlink="http://www.w3.org/1999/xlink" version="1.1" id="Layer_1" x="0px" y="0px" width="100px" height="100px" viewBox="0 0 100 100" enable-background="new 0 0 100 100" xml:space="preserve">
<path d="M81.895,24.333H17.896c-4.418,0-8.001,3.583-8.001,8v48c0,4.418,3.583,7.998,8.001,7.998h63.999  c4.418,0,8.001-3.58,8.001-7.998v-48C89.896,27.916,86.313,24.333,81.895,24.333z M64.008,27.187c3.313,0,6,2.686,6,6  c0,3.314-2.688,6-6,6c-3.313,0-6-2.686-6-6C58.008,29.873,60.694,27.187,64.008,27.187z M35.785,27.187c3.313,0,6,2.686,6,6  c0,3.314-2.687,6-6,6c-3.313,0-6-2.686-6-6C29.786,29.873,32.473,27.187,35.785,27.187z M81.895,73.895  c0,4.418-3.583,8.001-8.001,8.001h-48c-4.418,0-8.001-3.583-8.001-8.001v-24c0-4.418,3.583-7.999,8.001-7.999h48  c4.418,0,8.001,3.581,8.001,7.999V73.895z"/>
<path d="M38.872,33.133c0,1.767-1.433,3.2-3.2,3.2l0,0c-1.767,0-3.2-1.433-3.2-3.2v-17.6c0-1.767,1.433-3.2,3.2-3.2l0,0  c1.767,0,3.2,1.433,3.2,3.2V33.133z"/>
<path d="M67.18,33.133c0,1.767-1.434,3.2-3.2,3.2l0,0c-1.767,0-3.199-1.433-3.199-3.2v-17.6c0-1.767,1.433-3.2,3.199-3.2l0,0  c1.767,0,3.2,1.433,3.2,3.2V33.133z"/>
<g>
	<path d="M32.861,54.784c-3.151,4.217-9.317,11.917-4.951,17.073c1.662,1.962,4.832,1.909,7.019,1.109   c3.056-1.118,3.854-4.558,6.497-6.211c-1.139,0.147-2.277,0.295-3.416,0.441c0.738,0.973,1.62,1.858,2.351,2.822   c0.573,0.755,2.397,0.094,3.051-0.238c3.794-1.924,4.567-5.309,7.221-8.405c-1.229,0.216-2.457,0.433-3.685,0.648   c0.831,2.18,2.274,4.019,3.29,6.115c0.445,0.92,2.868-0.097,3.416-0.441c3.91-2.451,4.878-6.732,7.479-10.287   c-1.279,0.284-2.56,0.567-3.839,0.851c2.967,3.873,2.868,9.682,9.005,8.305c5.193-1.165,5.792-8.829,7.065-12.92   c0.256-0.822-3.503-0.335-3.814,0.666c-0.917,2.945-1.548,5.958-2.73,8.817c-1.356,3.28-2.059,1.223-3.229-1.164   c-0.788-1.607-1.334-3.306-2.433-4.739c-0.717-0.936-3.281,0.089-3.839,0.851c-2.291,3.131-3.185,7.306-6.633,9.469   c1.139-0.147,2.277-0.294,3.416-0.441c-1.015-2.097-2.459-3.936-3.29-6.115c-0.365-0.959-3.25,0.142-3.685,0.648   c-2.057,2.401-3.056,6.115-5.954,7.585c1.017-0.079,2.034-0.159,3.051-0.238c-0.742-0.979-1.611-1.848-2.351-2.822   c-0.644-0.849-2.731,0.013-3.416,0.441c-1.35,0.844-2.304,1.852-3.245,3.127c-1.037,1.406-0.924,2.461-2.891,1.408   c-1.386-0.741-1.859-2.226-2.047-3.656c-0.605-4.607,3.845-9.941,6.401-13.364C36.971,53.724,33.552,53.858,32.861,54.784   L32.861,54.784z"/>
</g>
</svg>